<?xml version="1.0" standalone="no"?>
<!DOCTYPE svg PUBLIC "-//W3C//DTD SVG 20010904//EN"
 "http://www.w3.org/TR/2001/REC-SVG-20010904/DTD/svg10.dtd">
<svg version="1.0" xmlns="http://www.w3.org/2000/svg"
 width="168.000000pt" height="167.000000pt" viewBox="0 0 168.000000 167.000000"
 preserveAspectRatio="xMidYMid meet">

<g transform="translate(0.000000,167.000000) scale(0.100000,-0.100000)"
fill="#000000" stroke="none">
<path d="M891 1585 c-58 -35 -108 -70 -113 -77 -5 -7 -8 -44 -7 -83 0 -38 0
-93 0 -121 l-1 -52 -94 -56 c-52 -31 -99 -56 -104 -56 -6 0 -58 28 -116 61
l-106 61 -115 -68 -115 -69 0 -126 c0 -92 -4 -138 -16 -170 -24 -64 -24 -181
-1 -207 24 -26 58 -32 96 -16 23 10 33 22 41 54 6 23 8 55 5 71 -8 35 -3 36
52 4 l43 -26 0 -132 0 -132 40 -23 c38 -21 40 -25 40 -71 0 -63 26 -99 57 -82
21 11 22 10 20 -79 -2 -85 -1 -91 26 -117 23 -24 36 -28 83 -28 49 0 59 4 80
28 29 34 32 97 9 173 -20 66 -19 72 8 67 30 -6 47 16 54 66 9 65 23 68 95 25
93 -55 89 -50 72 -96 -41 -118 12 -212 109 -194 70 13 95 76 71 175 -16 61
-16 66 0 76 129 78 134 82 138 119 2 20 1 36 -2 36 -12 0 -30 -24 -30 -40 0
-10 -30 -34 -76 -60 -42 -24 -78 -48 -80 -55 -3 -6 2 -30 11 -54 8 -24 15 -63
15 -87 0 -78 -64 -111 -115 -59 -30 29 -32 69 -6 143 l19 54 -52 32 c-28 18
-66 41 -83 51 l-33 19 0 122 c0 99 3 123 15 128 8 3 15 17 15 31 0 25 -1 25
-25 9 -23 -15 -27 -14 -122 43 l-98 59 -3 126 -3 126 99 56 c54 31 101 56 105
56 3 0 29 -14 57 -30 48 -28 70 -31 70 -10 0 5 -25 23 -55 40 l-55 31 0 124 0
123 94 56 c52 31 100 56 106 56 6 0 54 -25 106 -56 l94 -56 0 -82 c0 -77 9
-106 32 -106 5 0 7 46 6 102 l-3 103 -109 67 c-60 38 -117 68 -125 68 -9 0
-63 -29 -120 -65z m-431 -424 l95 -57 3 -113 c2 -70 -1 -118 -8 -126 -6 -7
-54 -39 -106 -70 l-95 -56 -64 40 c-36 23 -70 41 -76 41 -8 0 -9 -16 -3 -52
15 -100 3 -138 -42 -138 -55 0 -67 75 -29 181 10 30 15 83 15 170 l0 127 93
55 c50 30 99 55 107 56 8 0 58 -26 110 -58z m211 -388 c112 -66 109 -60 106
-205 -2 -89 -4 -99 -24 -113 -15 -10 -23 -26 -23 -45 0 -47 -9 -60 -45 -60
-44 0 -49 -19 -25 -97 29 -93 27 -136 -7 -163 -21 -16 -36 -20 -62 -16 -59 9
-66 24 -66 144 0 97 -2 107 -19 110 -10 2 -23 -3 -28 -12 -16 -28 -28 -7 -28
49 0 53 -1 55 -40 77 l-40 23 2 125 3 125 95 57 c52 32 96 58 99 58 2 0 48
-26 102 -57z"/>
<path d="M577 203 c-4 -3 -7 -18 -7 -33 0 -49 42 -66 75 -30 26 29 7 70 -33
70 -16 0 -32 -3 -35 -7z m43 -33 c0 -5 -4 -10 -10 -10 -5 0 -10 5 -10 10 0 6
5 10 10 10 6 0 10 -4 10 -10z"/>
<path d="M1052 1110 l3 -51 -37 -10 c-48 -12 -93 -51 -85 -71 15 -41 121 -97
184 -98 l33 0 -20 -32 c-11 -18 -20 -39 -20 -47 0 -8 -7 -22 -16 -32 -19 -21
-12 -49 13 -49 9 0 36 -10 61 -21 150 -73 370 104 267 215 -25 27 -26 57 -1
37 14 -12 26 -5 26 16 0 17 -42 17 -59 1 -11 -11 -13 -10 -9 2 3 8 14 16 26
18 22 3 30 26 14 36 -13 8 -52 -23 -61 -47 -5 -14 -17 -22 -32 -22 -20 0 -28
10 -46 54 -12 29 -32 65 -45 78 -32 35 -115 73 -161 73 l-39 0 4 -50z m117 -9
c39 -20 85 -73 96 -111 l7 -25 -28 26 c-35 32 -77 54 -121 64 -18 3 -33 12
-33 18 0 7 -3 23 -7 36 -6 22 -4 23 23 17 16 -4 45 -15 63 -25z m6 -100 c80
-36 78 -59 -7 -82 -40 -11 -55 -10 -101 4 -29 9 -64 28 -76 41 l-23 24 29 16
c39 21 129 20 178 -3z m197 -81 c42 -12 58 -34 58 -79 0 -27 -4 -31 -27 -31
-25 -1 -26 -2 -11 -14 17 -12 17 -14 0 -29 -16 -15 -20 -14 -50 9 -35 28 -58
88 -48 128 7 29 21 31 78 16z m-122 -40 c0 -41 22 -90 54 -119 33 -31 33 -41
0 -41 -35 0 -94 59 -95 97 -2 43 2 67 13 81 17 20 28 14 28 -18z m-80 -80 c0
-9 11 -32 25 -53 29 -42 15 -51 -28 -17 -33 26 -40 50 -27 86 9 23 13 25 20
14 6 -8 10 -22 10 -30z"/>
<path d="M1340 872 c0 -7 8 -12 17 -10 24 4 27 24 3 24 -11 0 -20 -6 -20 -14z"/>
<path d="M397 233 c-11 -11 -8 -58 5 -71 33 -33 91 16 68 57 -10 20 -58 30
-73 14z m43 -33 c0 -5 -4 -10 -10 -10 -5 0 -10 5 -10 10 0 6 5 10 10 10 6 0
10 -4 10 -10z"/>
</g>
</svg>
