<?xml version="1.0" standalone="no"?>
<!DOCTYPE svg PUBLIC "-//W3C//DTD SVG 20010904//EN"
 "http://www.w3.org/TR/2001/REC-SVG-20010904/DTD/svg10.dtd">
<svg version="1.0" xmlns="http://www.w3.org/2000/svg"
 width="255.000000pt" height="255.000000pt" viewBox="0 0 255.000000 255.000000"
 preserveAspectRatio="xMidYMid meet">

<g transform="translate(0.000000,255.000000) scale(0.100000,-0.100000)"
fill="#000000" stroke="none">
<path d="M1570 2530 c-8 -5 -12 -12 -8 -15 9 -9 48 4 48 16 0 12 -21 11 -40
-1z"/>
<path d="M1265 2483 c0 -27 -4 -65 -8 -85 -8 -37 -7 -38 22 -38 l30 0 -6 53
c-7 59 0 57 37 -11 14 -26 33 -48 43 -50 14 -3 17 4 17 40 0 24 5 61 10 83 9
41 2 55 -31 55 -13 0 -15 -9 -11 -50 2 -27 2 -50 0 -50 -3 0 -19 23 -36 50
-42 67 -67 68 -67 3z"/>
<path d="M1510 2485 c0 -34 -22 -115 -32 -115 -4 0 -8 -7 -8 -15 0 -8 17 -19
43 -25 23 -6 48 -13 55 -15 16 -6 26 19 18 41 -5 12 -9 14 -20 5 -19 -16 -45
-4 -39 19 4 15 11 18 34 13 22 -4 29 -2 29 11 0 9 -6 16 -12 16 -23 0 -39 16
-33 33 7 16 34 13 46 -6 9 -13 29 0 29 18 0 8 -18 19 -42 25 -24 6 -49 13 -55
15 -8 3 -13 -5 -13 -20z"/>
<path d="M978 2490 c-41 -12 -52 -21 -39 -30 16 -9 40 -105 34 -130 -4 -14 -1
-19 8 -16 8 2 35 10 62 16 48 13 52 17 41 44 -8 20 -34 21 -34 1 0 -8 -9 -15
-20 -15 -31 0 -26 36 6 44 36 9 24 32 -15 28 -27 -3 -32 0 -29 15 2 12 12 18
28 18 24 0 30 5 30 25 0 12 -34 12 -72 0z"/>
<path d="M804 2430 c-50 -20 -68 -85 -37 -130 23 -34 33 -40 69 -40 43 0 79
29 70 58 -9 29 -34 28 -38 0 -5 -38 -49 -31 -70 11 -23 47 -9 75 33 66 31 -7
40 10 17 33 -14 14 -15 14 -44 2z"/>
<path d="M1697 2392 c-40 -42 -45 -85 -14 -116 32 -32 76 -44 88 -25 17 27 10
39 -22 37 -45 -4 -58 20 -36 67 14 30 22 36 45 33 16 -2 27 -9 27 -18 0 -17
15 -31 27 -24 16 10 8 43 -14 58 -34 24 -71 20 -101 -12z"/>
<path d="M1890 2325 c-14 -17 -4 -39 16 -31 8 3 14 1 14 -5 0 -17 -51 -79 -66
-79 -27 0 -26 -23 2 -45 30 -24 44 -24 44 1 0 18 50 94 61 94 5 0 9 -7 9 -15
0 -20 26 -19 34 1 3 9 6 17 6 19 0 4 -96 75 -103 75 -2 0 -10 -7 -17 -15z"/>
<path d="M578 2289 c-10 -5 -18 -17 -18 -26 0 -9 3 -13 6 -10 8 8 74 -77 74
-96 0 -7 3 -16 6 -20 7 -6 104 61 104 72 0 13 -36 41 -43 34 -4 -3 -7 -14 -7
-24 0 -35 -29 -28 -60 13 -16 23 -30 48 -30 55 0 15 -9 16 -32 2z"/>
<path d="M467 2192 c-20 -22 -21 -32 -4 -32 7 0 30 -18 52 -40 32 -33 36 -41
25 -55 -20 -24 -36 -18 -78 30 -38 44 -40 44 -57 25 -16 -18 -16 -20 21 -52
77 -68 96 -73 132 -35 36 38 29 80 -18 117 -22 17 -40 38 -40 46 0 19 -14 18
-33 -4z"/>
<path d="M2088 2159 c-4 -13 -94 -49 -120 -49 -24 0 -23 -23 1 -44 18 -17 20
-17 30 1 9 17 11 17 32 -4 l23 -22 -23 -9 -23 -8 25 -30 c24 -27 26 -28 32 -9
4 11 22 50 41 86 32 64 33 67 16 83 -22 19 -29 20 -34 5z m-8 -69 c-9 -17 -15
-19 -23 -10 -9 9 -7 15 7 26 25 18 31 12 16 -16z"/>
<path d="M1351 1985 c-58 -35 -108 -70 -113 -77 -5 -7 -8 -44 -7 -83 0 -38 0
-93 0 -121 l-1 -52 -94 -56 c-52 -31 -99 -56 -104 -56 -6 0 -58 28 -116 61
l-106 61 -115 -68 -115 -69 0 -126 c0 -92 -4 -138 -16 -170 -24 -64 -24 -181
-1 -207 24 -26 58 -32 96 -16 23 10 33 22 41 54 6 23 8 55 5 71 -8 35 -3 36
52 4 l43 -26 0 -132 0 -132 40 -23 c38 -21 40 -25 40 -71 0 -63 26 -99 57 -82
21 11 22 10 20 -79 -2 -85 -1 -91 26 -117 23 -24 36 -28 83 -28 49 0 59 4 80
28 29 34 32 97 9 173 -20 66 -19 72 8 67 30 -6 47 16 54 66 9 65 23 68 95 25
93 -55 89 -50 72 -96 -41 -118 12 -212 109 -194 70 13 95 76 71 175 -16 61
-16 66 0 76 129 78 134 82 138 119 2 20 1 36 -2 36 -12 0 -30 -24 -30 -40 0
-10 -30 -34 -76 -60 -42 -24 -78 -48 -80 -55 -3 -6 2 -30 11 -54 8 -24 15 -63
15 -87 0 -78 -64 -111 -115 -59 -30 29 -32 69 -6 143 l19 54 -52 32 c-28 18
-66 41 -83 51 l-33 19 0 122 c0 99 3 123 15 128 8 3 15 17 15 31 0 25 -1 25
-25 9 -23 -15 -27 -14 -122 43 l-98 59 -3 126 -3 126 99 56 c54 31 101 56 105
56 3 0 29 -14 57 -30 48 -28 70 -31 70 -10 0 5 -25 23 -55 40 l-55 31 0 124 0
123 94 56 c52 31 100 56 106 56 6 0 54 -25 106 -56 l94 -56 0 -82 c0 -77 9
-106 32 -106 5 0 7 46 6 102 l-3 103 -109 67 c-60 38 -117 68 -125 68 -9 0
-63 -29 -120 -65z m-431 -424 l95 -57 3 -113 c2 -70 -1 -118 -8 -126 -6 -7
-54 -39 -106 -70 l-95 -56 -64 40 c-36 23 -70 41 -76 41 -8 0 -9 -16 -3 -52
15 -100 3 -138 -42 -138 -55 0 -67 75 -29 181 10 30 15 83 15 170 l0 127 93
55 c50 30 99 55 107 56 8 0 58 -26 110 -58z m211 -388 c112 -66 109 -60 106
-205 -2 -89 -4 -99 -24 -113 -15 -10 -23 -26 -23 -45 0 -47 -9 -60 -45 -60
-44 0 -49 -19 -25 -97 29 -93 27 -136 -7 -163 -21 -16 -36 -20 -62 -16 -59 9
-66 24 -66 144 0 97 -2 107 -19 110 -10 2 -23 -3 -28 -12 -16 -28 -28 -7 -28
49 0 53 -1 55 -40 77 l-40 23 2 125 3 125 95 57 c52 32 96 58 99 58 2 0 48
-26 102 -57z"/>
<path d="M1037 603 c-4 -3 -7 -18 -7 -33 0 -49 42 -66 75 -30 26 29 7 70 -33
70 -16 0 -32 -3 -35 -7z m43 -33 c0 -5 -4 -10 -10 -10 -5 0 -10 5 -10 10 0 6
5 10 10 10 6 0 10 -4 10 -10z"/>
<path d="M2220 2002 c0 -15 -88 -62 -117 -62 -23 0 -23 -1 -8 -30 17 -33 30
-38 39 -15 3 8 12 15 21 15 22 0 18 -31 -5 -37 -23 -6 -25 -16 -10 -44 15 -27
23 -24 43 14 14 26 24 33 41 30 13 -3 29 3 40 16 18 20 19 22 1 61 -18 41 -45
72 -45 52z m23 -66 c3 -8 -1 -20 -10 -27 -13 -11 -17 -10 -29 6 -11 15 -11 20
-1 27 19 12 34 10 40 -6z"/>
<path d="M324 1989 c-21 -11 -64 -76 -64 -98 0 -7 6 -11 13 -9 19 4 107 -45
107 -59 0 -28 28 -10 48 31 28 56 28 70 -5 105 -32 34 -68 45 -99 30z m56 -39
c25 -14 41 -44 34 -64 -8 -22 -18 -20 -70 10 -43 25 -44 27 -28 45 19 21 37
24 64 9z"/>
<path d="M1512 1510 l3 -51 -37 -10 c-48 -12 -93 -51 -85 -71 15 -41 121 -97
184 -98 l33 0 -20 -32 c-11 -18 -20 -39 -20 -47 0 -8 -7 -22 -16 -32 -19 -21
-12 -49 13 -49 9 0 36 -10 61 -21 150 -73 370 104 267 215 -25 27 -26 57 -1
37 14 -12 26 -5 26 16 0 17 -42 17 -59 1 -11 -11 -13 -10 -9 2 3 8 14 16 26
18 22 3 30 26 14 36 -13 8 -52 -23 -61 -47 -5 -14 -17 -22 -32 -22 -20 0 -28
10 -46 54 -12 29 -32 65 -45 78 -32 35 -115 73 -161 73 l-39 0 4 -50z m117 -9
c39 -20 85 -73 96 -111 l7 -25 -28 26 c-35 32 -77 54 -121 64 -18 3 -33 12
-33 18 0 7 -3 23 -7 36 -6 22 -4 23 23 17 16 -4 45 -15 63 -25z m6 -100 c80
-36 78 -59 -7 -82 -40 -11 -55 -10 -101 4 -29 9 -64 28 -76 41 l-23 24 29 16
c39 21 129 20 178 -3z m197 -81 c42 -12 58 -34 58 -79 0 -27 -4 -31 -27 -31
-25 -1 -26 -2 -11 -14 17 -12 17 -14 0 -29 -16 -15 -20 -14 -50 9 -35 28 -58
88 -48 128 7 29 21 31 78 16z m-122 -40 c0 -41 22 -90 54 -119 33 -31 33 -41
0 -41 -35 0 -94 59 -95 97 -2 43 2 67 13 81 17 20 28 14 28 -18z m-80 -80 c0
-9 11 -32 25 -53 29 -42 15 -51 -28 -17 -33 26 -40 50 -27 86 9 23 13 25 20
14 6 -8 10 -22 10 -30z"/>
<path d="M1800 1272 c0 -7 8 -12 17 -10 24 4 27 24 3 24 -11 0 -20 -6 -20 -14z"/>
<path d="M857 633 c-11 -11 -8 -58 5 -71 33 -33 91 16 68 57 -10 20 -58 30
-73 14z m43 -33 c0 -5 -4 -10 -10 -10 -5 0 -10 5 -10 10 0 6 5 10 10 10 6 0
10 -4 10 -10z"/>
<path d="M740 306 c0 -13 -15 -47 -34 -75 l-35 -51 39 -20 c65 -33 107 -23
136 31 22 43 11 74 -38 109 -50 36 -68 38 -68 6z m80 -62 c0 -33 -30 -74 -55
-74 -13 0 -27 4 -30 10 -6 9 17 61 37 87 13 16 48 -1 48 -23z"/>
<path d="M1760 304 c-57 -33 -58 -33 -39 -47 24 -18 69 -90 69 -109 0 -23 7
-22 54 5 44 25 50 35 36 57 -9 13 -13 11 -29 -9 -10 -13 -23 -21 -30 -17 -16
10 -14 33 4 40 8 3 15 12 15 21 0 18 -5 19 -32 4 -16 -8 -22 -8 -29 2 -10 17
-2 29 21 29 26 0 35 19 19 36 -12 11 -21 10 -59 -12z"/>
<path d="M933 221 c5 -22 -17 -105 -36 -129 -12 -16 -12 -16 47 -36 64 -21 66
-21 66 10 0 23 -3 25 -25 20 -33 -8 -44 -1 -38 23 4 16 9 18 30 10 31 -12 30
-12 37 6 4 11 -3 19 -19 25 -14 5 -25 16 -25 25 0 19 29 20 36 0 9 -22 32 -18
39 6 8 25 11 22 -44 38 -23 7 -50 15 -59 18 -12 5 -14 1 -9 -16z"/>
<path d="M1570 223 c-8 -3 -26 -10 -39 -15 -21 -8 -22 -10 -9 -26 16 -18 39
-81 43 -117 1 -11 3 -21 4 -22 0 -1 21 5 46 14 58 19 80 50 71 99 -12 60 -59
88 -116 67z m62 -40 c27 -24 24 -81 -4 -92 -21 -8 -25 -4 -41 42 -13 40 -14
52 -5 59 19 12 29 10 50 -9z"/>
<path d="M1359 179 c-75 -27 -57 -169 21 -169 43 0 61 10 75 43 14 33 5 92
-17 112 -20 19 -50 24 -79 14z m62 -56 c21 -53 -19 -104 -56 -73 -18 15 -20
71 -3 88 21 21 48 14 59 -15z"/>
<path d="M1126 161 c-10 -11 -20 -38 -23 -61 -8 -57 23 -90 84 -90 39 0 43 2
43 25 0 28 -17 33 -35 9 -9 -14 -16 -14 -33 -5 -24 13 -30 58 -12 92 13 23 60
26 60 4 0 -8 7 -15 16 -15 11 0 14 8 12 28 -3 24 -7 27 -49 30 -35 2 -49 -2
-63 -17z"/>
</g>
</svg>
